<?xml version="1.0" standalone="no"?><!DOCTYPE svg PUBLIC "-//W3C//DTD SVG 1.1//EN" "http://www.w3.org/Graphics/SVG/1.1/DTD/svg11.dtd"><svg t="1539175577027" class="icon" style="" viewBox="0 0 1120 1024" version="1.1" xmlns="http://www.w3.org/2000/svg" p-id="2486" xmlns:xlink="http://www.w3.org/1999/xlink" width="218.75" height="200"><defs><style type="text/css"></style></defs><path d="M549.184 138.912c-337.984 0-549.184 373.088-549.184 373.088s209.184 373.088 549.184 373.088c318.016 0 559.392-373.088 559.392-373.088s-239.392-373.088-559.392-373.088zM552.192 680.032c-92.608 0-167.616-75.04-167.616-167.616s75.04-167.648 167.616-167.648 167.648 75.072 167.648 167.648-75.072 167.616-167.648 167.616zM553.216 428.608c-46.08 0-83.424 37.376-83.424 83.424s37.344 83.424 83.424 83.424 83.424-37.344 83.424-83.424c0.032-46.048-37.312-83.424-83.424-83.424z" p-id="2487"></path></svg>